<?xml version="1.0" encoding="utf-8"?>
<!DOCTYPE svg PUBLIC "-//W3C//DTD SVG 1.1//EN" "http://www.w3.org/Graphics/SVG/1.1/DTD/svg11.dtd">
<svg version="1.1" id="brand-logo" xmlns="http://www.w3.org/2000/svg" xmlns:xlink="http://www.w3.org/1999/xlink" x="0px" y="0px" width="33px" height="33px" enable-background="new 0 0 33 33" xml:space="preserve">
<g id="Rec">
	<g>
		<path fill="#E4E6E6" d="M12.503,12.514c-1.949,1.949-1.949,5.121,0,7.07c0.944,0.944,2.2,1.465,3.536,1.465
			c1.335,0,2.591-0.521,3.535-1.465s1.464-2.199,1.465-3.535c0-1.336-0.521-2.592-1.465-3.535c-0.943-0.944-2.199-1.465-3.535-1.465
			S13.448,11.569,12.503,12.514z M19.04,16.049c0,0.801-0.312,1.555-0.879,2.121c-1.134,1.133-3.108,1.133-4.243,0
			c-1.17-1.17-1.17-3.072,0-4.242c0.567-0.566,1.32-0.879,2.122-0.879c0.801,0,1.555,0.312,2.121,0.879S19.04,15.247,19.04,16.049z
			 M29.156,6.833c-0.317-0.453-0.94-0.562-1.393-0.244c-0.452,0.317-0.562,0.941-0.244,1.393c3.917,5.579,3.257,13.13-1.58,17.967
			c-4.826,4.827-12.378,5.485-17.953,1.568c-0.451-0.317-1.077-0.207-1.394,0.243c-0.317,0.452-0.208,1.076,0.243,1.394
			c2.782,1.954,5.991,2.912,9.187,2.912c4.127-0.001,8.228-1.599,11.342-4.714C32.878,21.837,33.632,13.208,29.156,6.833z
			 M24.082,4.548c0.452,0.318,1.077,0.207,1.394-0.243c0.317-0.452,0.208-1.076-0.243-1.394C18.86-1.566,10.229-0.813,4.704,4.713
			c-5.515,5.515-6.269,14.144-1.792,20.519c0.194,0.277,0.505,0.426,0.819,0.426c0.198,0,0.398-0.059,0.573-0.182
			c0.452-0.317,0.562-0.941,0.244-1.393c-3.917-5.579-3.257-13.13,1.58-17.967C10.955,1.291,18.505,0.63,24.082,4.548z"/>
	</g>
</g>
</svg>
