<?xml version="1.0" encoding="utf-8"?>
<!DOCTYPE svg PUBLIC "-//W3C//DTD SVG 1.1//EN" "http://www.w3.org/Graphics/SVG/1.1/DTD/svg11.dtd">
<svg version="1.1" id="close_btn" xmlns="http://www.w3.org/2000/svg" xmlns:xlink="http://www.w3.org/1999/xlink" x="0px" y="0px" width="30px" height="30px"
	 viewBox="0 0 29 29" style="enable-background:new 0 0 29 29;" xml:space="preserve">
<path d="M17,14.5L28.5,3c0.7-0.7,0.7-1.8,0-2.5c-0.7-0.7-1.8-0.7-2.5,0L14.5,12l0,0l0,0L3,0.5c-0.7-0.7-1.8-0.7-2.5,0
	C0.2,0.9,0,1.3,0,1.8C0,2.2,0.2,2.7,0.5,3L12,14.5L0.5,26c-0.7,0.7-0.7,1.8,0,2.5c0.7,0.7,1.8,0.7,2.5,0L14.5,17l0,0l0,0L26,28.5
	c0.7,0.7,1.8,0.7,2.5,0c0.3-0.3,0.5-0.8,0.5-1.3c0-0.5-0.2-0.9-0.5-1.3L17,14.5z"/>
</svg>
