<?xml version="1.0" encoding="utf-8"?>
<!DOCTYPE svg PUBLIC "-//W3C//DTD SVG 1.1//EN" "http://www.w3.org/Graphics/SVG/1.1/DTD/svg11.dtd">
<svg version="1.1" id="icon-download" xmlns="http://www.w3.org/2000/svg" xmlns:xlink="http://www.w3.org/1999/xlink" x="0px" y="0px"
	 width="33px" height="33px" enable-background="new 0 0 33 33" xml:space="preserve">
<g>
	<g>
		<path fill="#FFFFFF" d="M16.507,6.148c-0.57,0-1.033,0.461-1.033,1.03v5.192h-3.103c-0.001,0-0.001,0-0.001,0h-0.006
			c-0.153,0.002-0.296,0.043-0.428,0.104c-0.009,0.004-0.019,0.002-0.027,0.006c-0.047,0.023-0.076,0.062-0.117,0.09
			c-0.062,0.045-0.124,0.083-0.175,0.14c-0.045,0.048-0.075,0.104-0.11,0.163c-0.034,0.056-0.072,0.106-0.097,0.171
			c-0.026,0.07-0.032,0.143-0.044,0.219c-0.007,0.049-0.029,0.093-0.029,0.144c0,0.012,0.007,0.02,0.007,0.032
			c0.002,0.068,0.024,0.135,0.041,0.201c0.017,0.068,0.024,0.137,0.054,0.199c0.004,0.01,0.003,0.02,0.008,0.03l4.136,8.282
			c0.352,0.702,1.498,0.702,1.85,0l4.136-8.282c0.005-0.011,0.004-0.021,0.008-0.03c0.029-0.062,0.037-0.129,0.054-0.197
			s0.039-0.135,0.041-0.203c0-0.013,0.007-0.021,0.007-0.032c0-0.051-0.022-0.095-0.029-0.144c-0.012-0.076-0.018-0.148-0.045-0.219
			c-0.023-0.064-0.062-0.115-0.096-0.171c-0.034-0.059-0.065-0.115-0.11-0.163c-0.051-0.057-0.113-0.095-0.175-0.14
			c-0.041-0.027-0.07-0.066-0.117-0.09c-0.01-0.004-0.021-0.004-0.029-0.009c-0.066-0.029-0.139-0.038-0.21-0.054
			c-0.063-0.017-0.124-0.038-0.188-0.04c-0.013,0-0.023-0.007-0.035-0.007h-3.104V7.179C17.539,6.609,17.077,6.148,16.507,6.148z
			 M18.97,14.442l-2.463,4.932l-2.463-4.932h1.43v0.98c0,0.569,0.463,1.03,1.033,1.03s1.032-0.461,1.032-1.03v-0.98H18.97z
			 M12.371,26.821h8.271c0.571,0,1.034-0.464,1.034-1.036s-0.463-1.035-1.034-1.035h-8.271c-0.571,0-1.034,0.463-1.034,1.035
			S11.8,26.821,12.371,26.821z M16.507,0C7.404,0,0,7.454,0,16.618c0,8.093,5.74,14.978,13.648,16.368
			c0.562,0.099,1.095-0.279,1.192-0.844c0.098-0.565-0.277-1.102-0.838-1.201C7.084,29.725,2.062,23.7,2.062,16.618
			c0-8.02,6.479-14.543,14.445-14.543s14.445,6.523,14.445,14.543c0,7.082-5.022,13.107-11.941,14.325
			c-0.562,0.1-0.936,0.637-0.838,1.201c0.099,0.563,0.633,0.94,1.192,0.844c7.908-1.393,13.648-8.277,13.648-16.37
			C33.014,7.454,25.608,0,16.507,0z"/>
	</g>
</g>
</svg>
