<?xml version="1.0" encoding="utf-8"?>
<!DOCTYPE svg PUBLIC "-//W3C//DTD SVG 1.1//EN" "http://www.w3.org/Graphics/SVG/1.1/DTD/svg11.dtd">
<svg version="1.1" id="icon-phone" xmlns="http://www.w3.org/2000/svg" xmlns:xlink="http://www.w3.org/1999/xlink" x="0px" y="0px" width="20px" height="32px" enable-background="new 0 0 20 32" xml:space="preserve">
<g id="Smartphone">
	<g>
		<path fill="#ACB1B4" d="M17.25,0H2.75C1.233,0,0,1.29,0,2.875v26.25C0,30.71,1.233,32,2.75,32h14.5c1.517,0,2.75-1.29,2.75-2.875
			V2.875C20,1.29,18.767,0,17.25,0z M18,29.125C18,29.607,17.663,30,17.25,30H2.75C2.337,30,2,29.607,2,29.125V25h16V29.125z M18,23
			H2V8h16V23z M18,6H2V2.875C2,2.393,2.337,2,2.75,2h14.5C17.663,2,18,2.393,18,2.875V6z M10,29c0.829,0,1.5-0.672,1.5-1.5
			S10.829,26,10,26s-1.5,0.672-1.5,1.5S9.171,29,10,29z M12,3H8C7.447,3,7,3.447,7,4s0.447,1,1,1h4c0.553,0,1-0.447,1-1
			S12.553,3,12,3z"/>
	</g>
</g>
</svg>
