<?xml version="1.0" encoding="utf-8"?>
<!DOCTYPE svg PUBLIC "-//W3C//DTD SVG 1.1//EN" "http://www.w3.org/Graphics/SVG/1.1/DTD/svg11.dtd">
<svg version="1.1" id="twitter" xmlns="http://www.w3.org/2000/svg" xmlns:xlink="http://www.w3.org/1999/xlink" x="0px" y="0px" width="100px" height="78px"
	 viewBox="0 0 100 78" style="enable-background:new 0 0 100 78;" xml:space="preserve">
<path d="M100,9.2c-3.6,1.6-7.6,2.6-11.8,3.2c4.4-2.5,7.5-6.2,9.1-11c-4.2,2.4-8.6,4-13.1,4.8c-4-4.1-9-6.2-14.9-6.2
	c-5.7,0-10.5,1.9-14.5,5.8c-4,3.8-6,8.5-6,13.9c0,1.8,0.2,3.3,0.5,4.5c-8.4-0.4-16.3-2.5-23.6-6.1C18.2,14.5,12,9.6,6.8,3.6
	C4.9,6.7,4,10,4,13.5c0,7.1,3,12.6,8.9,16.4c-3.1-0.1-6.3-0.9-9.8-2.4v0.2c0,4.7,1.6,8.9,4.9,12.5c3.3,3.7,7.3,5.9,12,6.8
	c-1.9,0.5-3.5,0.8-5,0.8c-0.8,0-2.1-0.1-3.8-0.4c1.4,3.9,3.8,7.2,7.3,9.8C22,59.7,25.9,61,30.4,61c-7.6,5.6-16,8.4-25.5,8.4
	c-1.7,0-3.3-0.1-4.9-0.3C9.6,75.1,20.1,78,31.4,78c7.3,0,14.1-1.1,20.5-3.3c6.4-2.2,11.8-5.2,16.4-8.9c4.6-3.7,8.5-8,11.8-12.8
	c3.3-4.8,5.7-9.9,7.3-15.2c1.6-5.3,2.4-10.6,2.4-15.8c0-1.1,0-2-0.1-2.5C93.8,16.6,97.2,13.2,100,9.2z"/>
</svg>
